<svg width="20" height="20" viewBox="0 0 20 20" fill="none" xmlns="http://www.w3.org/2000/svg">
<g clip-path="url(#clip0)">
<path d="M1.82419 6.7441C1.57937 5.30131 1.96806 4.3331 2.56118 3.71971C3.17619 3.08368 4.08836 2.75 5.00103 2.75C6.7999 2.75 8.16731 4.09781 8.16731 5.65217H8.91731H9.66731C9.66731 4.09781 11.0347 2.75 12.8336 2.75C13.8385 2.75 14.8819 2.98601 15.5324 3.54741C15.8423 3.81489 16.0747 4.1645 16.1829 4.63854C16.2934 5.12225 16.2838 5.77903 16.0292 6.66177C15.7871 7.50154 15.2215 8.47067 14.4563 9.48018C13.6985 10.4798 12.7811 11.4723 11.8867 12.3566C10.9939 13.2392 10.1338 14.0043 9.49654 14.5489C9.27497 14.7382 9.08073 14.9006 8.92186 15.0317C8.7433 14.882 8.5199 14.6926 8.26329 14.4702C7.581 13.879 6.66746 13.0585 5.73866 12.1384C4.80745 11.2159 3.8739 10.2062 3.14387 9.23616C2.39634 8.2429 1.93231 7.38128 1.82419 6.7441Z" stroke="#838485" stroke-width="1.5"/>
</g>
<defs>
<clipPath id="clip0">
<rect width="20" height="20" fill="white"/>
</clipPath>
</defs>
</svg>
