<svg width="100" height="100" viewBox="0 0 100 100" fill="none" xmlns="http://www.w3.org/2000/svg">
<path d="M45 14H55V50H45V14Z" fill="white"/>
<path d="M55 49C55 51.7614 52.7614 54 50 54C47.2386 54 45 51.7614 45 49C45 46.2386 47.2386 44 50 44C52.7614 44 55 46.2386 55 49Z" fill="white"/>
<path d="M55 14C55 16.7614 52.7614 19 50 19C47.2386 19 45 16.7614 45 14C45 11.2386 47.2386 9 50 9C52.7614 9 55 11.2386 55 14Z" fill="white"/>
<path fill-rule="evenodd" clip-rule="evenodd" d="M41 24.0785C28.3153 27.5795 19 39.2019 19 53C19 69.5686 32.4315 83 49 83C65.5685 83 79 69.5686 79 53C79 39.9378 70.6519 28.8254 59 24.7071V34.6757C64.978 38.1338 69 44.5972 69 52C69 63.0457 60.0457 72 49 72C37.9543 72 29 63.0457 29 52C29 43.7987 33.9364 36.7504 41 33.6642V24.0785Z" fill="white"/>
</svg>
