<svg width="100" height="100" viewBox="0 0 100 100" fill="none" xmlns="http://www.w3.org/2000/svg">
<path d="M51 16C58.8805 16 64.2519 17.4518 67.8832 19.5388C71.4426 21.5845 73.5694 24.374 74.7907 27.5918C77.3475 34.328 76.0107 43.1744 73.7627 50.652C71.7396 57.3813 72.5576 65.1673 76.8313 71H24.9388C28.9072 65.2535 29.6173 57.7948 27.7196 51.297C25.5442 43.8479 24.211 34.8328 26.8324 27.9175C28.0873 24.607 30.2614 21.7358 33.881 19.633C37.569 17.4904 43.0151 16 51 16Z" stroke="rgba(255, 255, 255, 0.85)" stroke-width="8"/>
<path fill-rule="evenodd" clip-rule="evenodd" d="M50.5 87C56.8513 87 62 83.4183 62 79H39C39 83.4183 44.1487 87 50.5 87ZM42.8933 73H58.1067C56.0795 71.7553 53.4165 71 50.5 71C47.5835 71 44.9205 71.7553 42.8933 73Z" fill="rgba(255, 255, 255, 0.85)"/>
<circle cx="49.5" cy="10.5" r="6.5" fill="rgba(255, 255, 255, 0.85)"/>
</svg>
