<svg width="100" height="100" viewBox="0 0 100 100" fill="none" xmlns="http://www.w3.org/2000/svg">
<path fill-rule="evenodd" clip-rule="evenodd" d="M48 57C59.0457 57 68 46.7025 68 34C68 21.2975 59.0457 11 48 11C36.9543 11 28 21.2975 28 34C28 46.7025 36.9543 57 48 57ZM48 50C55.1797 50 61 43.0604 61 34.5C61 25.9396 55.1797 19 48 19C40.8203 19 35 25.9396 35 34.5C35 43.0604 40.8203 50 48 50Z" fill="white"/>
<path fill-rule="evenodd" clip-rule="evenodd" d="M7.01641 79C7.0055 78.8339 7 78.6672 7 78.5C7 68.835 25.3563 61 48 61C70.6437 61 89 68.835 89 78.5C89 78.6672 88.9945 78.8339 88.9836 79H73.8147C72.2734 72.8037 61.3035 68 48 68C34.6965 68 23.7266 72.8037 22.1853 79H7.01641Z" fill="white"/>
<path d="M7 77.5H89V84.5H7V77.5Z" fill="white"/>
</svg>
