<svg width="20" height="20" viewBox="0 0 20 20" fill="none" xmlns="http://www.w3.org/2000/svg">
<path fill-rule="evenodd" clip-rule="evenodd" d="M14.1904 12C15.3112 10.8321 16 9.24649 16 7.5C16 3.91015 13.0899 1 9.5 1C5.91015 1 3 3.91015 3 7.5C3 10.9216 5.64378 13.7257 9 13.9811V14.9836C5.09098 14.7263 2 11.4741 2 7.5C2 3.35786 5.35786 0 9.5 0C13.6421 0 17 3.35786 17 7.5C17 9.18841 16.4421 10.7465 15.5005 12H14.1904Z" fill="#838485"/>
<path d="M9 14V19" stroke="#838485" stroke-width="1.1"/>
<path d="M9.00029 18.9856C9.0005 19.369 15.0029 12.1039 15 12.0001" stroke="#838485" stroke-width="1.2"/>
<circle cx="9.5" cy="18.5" r="0.5" fill="#838485"/>
</svg>
